<svg xmlns="http://www.w3.org/2000/svg" width="13.975" height="13.975" viewBox="0 0 13.975 13.975">
  <path id="Icon_metro-my-location" data-name="Icon metro-my-location" d="M10.844,8.3a2.541,2.541,0,1,0,2.541,2.541A2.54,2.54,0,0,0,10.844,8.3Zm5.679,1.906a5.713,5.713,0,0,0-5.044-5.044V3.856h-1.27V5.165a5.713,5.713,0,0,0-5.044,5.044H3.856v1.27H5.165a5.713,5.713,0,0,0,5.044,5.044v1.309h1.27V16.523a5.713,5.713,0,0,0,5.044-5.044h1.309v-1.27ZM10.844,15.29a4.447,4.447,0,1,1,4.447-4.447A4.447,4.447,0,0,1,10.844,15.29Z" transform="translate(-3.856 -3.856)"/>
</svg>
