<svg xmlns="http://www.w3.org/2000/svg" width="23.085" height="23.085" viewBox="0 0 23.085 23.085">
  <path id="Icon_metro-cross" data-name="Icon metro-cross" d="M25.446,20.474h0l-7-7,7-7h0a.723.723,0,0,0,0-1.02L22.137,2.139a.723.723,0,0,0-1.02,0h0l-7,7-7-7h0a.723.723,0,0,0-1.02,0L2.782,5.447a.723.723,0,0,0,0,1.02h0l7,7-7,7h0a.723.723,0,0,0,0,1.02L6.09,24.8a.723.723,0,0,0,1.02,0h0l7-7,7,7h0a.723.723,0,0,0,1.02,0l3.308-3.308a.723.723,0,0,0,0-1.02Z" transform="translate(-2.571 -1.928)" fill="#fff"/>
</svg>
