<svg xmlns="http://www.w3.org/2000/svg" width="106.765" height="14.33" viewBox="0 0 106.765 14.33">
  <g id="Group_17938" data-name="Group 17938" transform="translate(106.765 14.33) rotate(180)">
    <g id="Group_17936" data-name="Group 17936" transform="translate(0 2.106)">
      <path id="Path_11249" data-name="Path 11249" d="M.387.456C.382.374.426.275.614.208a3.034,3.034,0,0,1,.9-.2A9.6,9.6,0,0,1,3.211.1L22.918,2.974a292.713,292.713,0,0,0,36.471,2.9c4.877.075,9.752-.016,14.634-.168,7.306-.229,14.612-.633,21.938-1.55a.459.459,0,1,1,.147.907A186.635,186.635,0,0,1,74.16,8.215c-4.925.385-9.86.5-14.795.491A276.746,276.746,0,0,1,22.506,5.933c-4.629-.645-9.3-1.178-13.89-2.1-1.984-.4-3.924-.932-5.877-1.447A7.053,7.053,0,0,1,1.112,1.8a2.164,2.164,0,0,1-.838-.665C-.056.552-.053.586.1.521a.168.168,0,0,1,.2-.128A.161.161,0,0,1,.387.456ZM.421.579C.433.6.44.61.421.588Z" fill="#fff" fill-rule="evenodd"/>
    </g>
    <g id="Group_17937" data-name="Group 17937" transform="translate(83.468)">
      <path id="Path_11250" data-name="Path 11250" d="M16.8,7.776c-3.787-1.2-8.756-2.694-9.564-2.954A29.528,29.528,0,0,1,3.925,3.38,15.708,15.708,0,0,1,.918,1.645a.834.834,0,0,1-.231-.383C.545.891.767.819.639.85A.191.191,0,0,1,.591.858C-.365,1.048-.254.08,1.605,0A12.434,12.434,0,0,1,4.958.985C6.434,1.505,7.787,2.15,8.03,2.22c1.078.315,9.441,2.542,12.79,3.594a14.019,14.019,0,0,1,1.43.511,1.646,1.646,0,0,1,.929.965,1.673,1.673,0,0,1-.568,1.962,10.966,10.966,0,0,1-2.858,1.05c-2.737.69-5.435,1.531-8.175,2.207C8.81,13.2,6.022,13.715,3.23,14.293A.982.982,0,0,1,2.7,12.4c2.685-.951,5.309-2.013,8.017-2.894C12.722,8.855,14.756,8.308,16.8,7.776Z" fill="#fff" fill-rule="evenodd"/>
    </g>
  </g>
</svg>
