<svg xmlns="http://www.w3.org/2000/svg" width="106.765" height="14.33" viewBox="0 0 106.765 14.33">
  <g id="Group_17938" data-name="Group 17938" transform="translate(-241.925 -324.355)">
    <g id="Group_17936" data-name="Group 17936">
      <path id="Path_11249" data-name="Path 11249" d="M242.312,336.123c0,.082.039.181.227.248a3.034,3.034,0,0,0,.9.2,9.6,9.6,0,0,0,1.692-.089l19.707-2.874a292.713,292.713,0,0,1,36.471-2.9c4.877-.075,9.752.016,14.634.168,7.306.229,14.612.633,21.938,1.55a.459.459,0,1,0,.147-.907,186.635,186.635,0,0,0-21.948-3.154c-4.925-.385-9.86-.5-14.795-.491a276.746,276.746,0,0,0-36.859,2.773c-4.629.645-9.3,1.178-13.89,2.1-1.984.4-3.924.932-5.877,1.447a7.053,7.053,0,0,0-1.627.585,2.164,2.164,0,0,0-.838.665c-.33.58-.327.546-.176.611a.168.168,0,0,0,.2.128A.161.161,0,0,0,242.312,336.123Zm.034-.123c.012-.024.019-.031,0-.009Z" fill="#fff" fill-rule="evenodd"/>
    </g>
    <g id="Group_17937" data-name="Group 17937">
      <path id="Path_11250" data-name="Path 11250" d="M342.188,330.909c-3.787,1.2-8.756,2.694-9.564,2.954a29.528,29.528,0,0,0-3.306,1.442,15.708,15.708,0,0,0-3.007,1.735.834.834,0,0,0-.231.383c-.142.371.08.443-.048.412a.191.191,0,0,0-.048-.008c-.956-.19-.845.778,1.014.857a12.434,12.434,0,0,0,3.353-.984c1.476-.52,2.829-1.165,3.072-1.235,1.078-.315,9.441-2.542,12.79-3.594a14.019,14.019,0,0,0,1.43-.511,1.646,1.646,0,0,0,.929-.965,1.673,1.673,0,0,0-.568-1.962,10.966,10.966,0,0,0-2.858-1.05c-2.737-.69-5.435-1.531-8.175-2.207-2.768-.686-5.556-1.206-8.348-1.784a.982.982,0,0,0-.528,1.892c2.685.951,5.309,2.013,8.017,2.894C338.115,329.83,340.149,330.377,342.188,330.909Z" fill="#fff" fill-rule="evenodd"/>
    </g>
  </g>
</svg>
